<?xml version="1.0" standalone="no"?>
<!DOCTYPE svg PUBLIC "-//W3C//DTD SVG 20010904//EN"
 "http://www.w3.org/TR/2001/REC-SVG-20010904/DTD/svg10.dtd">
<svg version="1.0" xmlns="http://www.w3.org/2000/svg"
 width="1024.000000pt" height="1024.000000pt" viewBox="0 0 1024.000000 1024.000000"
 preserveAspectRatio="xMidYMid meet">

<g transform="translate(0.000000,1024.000000) scale(0.100000,-0.100000)"
fill="#000000" stroke="none">
<path d="M3180 8765 c-173 -36 -340 -131 -466 -268 -132 -143 -213 -314 -243
-514 -8 -50 -11 -834 -11 -2551 0 -2687 -3 -2553 53 -2717 105 -308 358 -543
661 -615 83 -20 111 -20 1973 -18 l1888 3 85 29 c157 53 265 119 376 231 123
124 211 277 256 446 l23 84 3 2500 c2 1745 0 2529 -8 2595 -36 313 -238 597
-521 729 -177 83 29 75 -2104 77 -1553 2 -1912 0 -1965 -11z m3813 -514 c111
-44 200 -137 249 -259 l23 -57 3 -843 c2 -555 -1 -863 -8 -900 -33 -181 -168
-313 -351 -343 -40 -7 -132 -9 -244 -5 -99 4 -880 7 -1735 7 -1687 0 -1637 -1
-1740 55 -67 36 -155 130 -188 201 -26 57 -27 63 -30 277 -2 120 0 222 5 227
10 10 814 15 874 5 108 -18 179 34 258 191 l49 98 12 -30 c7 -16 54 -149 106
-294 52 -146 104 -280 115 -298 27 -44 101 -94 148 -100 46 -6 127 26 166 67
18 19 36 58 52 112 34 119 195 697 239 863 39 144 41 151 48 144 2 -2 82 -281
176 -619 95 -338 181 -632 191 -652 46 -91 198 -101 291 -18 44 38 74 96 236
450 l39 85 60 14 c48 10 71 11 114 1 37 -8 143 -11 344 -8 268 3 293 4 324 23
75 44 100 123 61 194 -40 70 -45 71 -423 71 -330 0 -336 0 -374 23 -31 18 -53
22 -118 22 -120 0 -127 -6 -239 -239 -51 -105 -102 -211 -113 -235 l-19 -44
-92 324 c-50 178 -134 484 -187 679 -52 195 -106 378 -120 406 -57 116 -223
138 -290 38 -11 -17 -38 -95 -59 -175 -22 -79 -72 -259 -112 -399 -41 -140
-100 -348 -131 -462 -32 -114 -60 -208 -63 -208 -3 0 -29 74 -58 163 -78 236
-139 373 -187 423 -67 69 -179 83 -243 29 -16 -13 -62 -88 -103 -165 -41 -78
-81 -150 -91 -160 -16 -17 -46 -18 -440 -22 -259 -2 -428 0 -436 6 -10 7 -12
113 -10 530 l3 521 29 60 c54 109 158 198 274 236 55 17 134 18 1857 16 l1800
-2 58 -24z m-2980 -2848 c15 -8 37 -28 47 -46 18 -29 20 -51 20 -244 l0 -213
198 0 c224 0 250 -7 285 -73 23 -45 24 -119 3 -152 -37 -56 -53 -60 -276 -62
l-205 -3 -5 -204 c-5 -186 -7 -207 -25 -232 -46 -61 -140 -82 -202 -44 -60 36
-67 63 -70 280 l-3 195 -229 5 c-226 5 -230 5 -255 29 -48 45 -52 122 -11 185
33 50 57 55 289 62 l216 7 0 204 c0 219 5 247 52 291 47 43 107 48 171 15z
m2826 -521 c48 -24 73 -62 78 -119 5 -60 -19 -110 -67 -138 -34 -20 -48 -20
-602 -18 -626 2 -607 0 -649 66 -16 25 -19 45 -16 89 3 61 19 86 72 119 28 18
62 19 590 19 513 0 563 -1 594 -18z m-510 -956 c70 -37 111 -116 97 -191 -8
-43 -61 -113 -104 -138 -76 -44 -200 -9 -236 67 -33 69 -13 179 40 228 53 48
146 63 203 34z m-2666 -211 c18 -8 85 -71 151 -140 l119 -125 130 126 c146
141 173 159 229 151 103 -14 155 -111 111 -205 -10 -21 -69 -90 -132 -155
l-115 -118 118 -117 c150 -147 180 -207 141 -281 -19 -38 -68 -78 -104 -86
-16 -3 -49 -1 -73 5 -36 10 -65 33 -170 139 l-126 128 -108 -108 c-159 -159
-223 -186 -305 -128 -58 41 -77 136 -39 194 11 17 70 77 131 135 l112 105
-110 110 c-61 61 -120 129 -132 152 -43 85 -17 177 59 215 43 22 72 23 113 3z
m3184 -292 c54 -25 75 -66 70 -135 -4 -65 -28 -100 -84 -124 -45 -19 -1165
-20 -1202 -1 -65 33 -89 135 -45 193 51 69 46 68 362 74 659 13 861 11 899 -7z
m-513 -418 c20 -10 49 -34 64 -53 23 -30 27 -45 27 -102 0 -58 -4 -72 -28
-103 -52 -68 -125 -96 -197 -77 -138 37 -175 206 -68 308 58 55 125 63 202 27z"/>
</g>
</svg>
